<svg xmlns="http://www.w3.org/2000/svg" width="220.476" height="72.48" viewBox="0 0 220.476 72.48">
  <g id="logo" transform="translate(-1301.933 -1838.242)">
    <path id="Path_604" data-name="Path 604" d="M-100,.722c5.624,0,10.83-3.306,10.83-9.006,0-9.31-13.984-9.082-13.984-15.39a3.261,3.261,0,0,1,3.458-3.42c2.508,0,3.344,1.748,3.344,3.724a4.665,4.665,0,0,1-1.6,3.382,4.951,4.951,0,0,0,3.42,1.444A3.433,3.433,0,0,0-90.725-22c0-2.128-1.9-5.32-8.816-5.32-6.764,0-10.526,3.23-10.526,8.208,0,8.892,14.212,9.652,14.212,15.656,0,2.052-1.406,3.952-4.56,3.952-5.016,0-8.36-4.446-9.424-10.45h-.19l.38,9.538C-104.367-.418-104.025.722-100,.722ZM-86.583-26.6l-.684,8.36.19.038C-86.2-23.18-82.9-26.3-78.185-26.3V-4.94c0,2.964-.988,4.75-3.04,4.75V0s3.534-.114,7.486-.114S-66.253,0-66.253,0V-.19c-2.014,0-3.04-.684-3.04-3.382V-26.3c5.472,0,8.246,3.344,8.246,8.056l.152.038.684-8.4s-8.626.114-14.022.114C-81.339-26.486-86.583-26.6-86.583-26.6ZM-47.709-3.838a7.7,7.7,0,0,1,.228,1.6c0,1.14-.456,2.052-1.938,2.052V0s2.014-.114,7.106-.114c5.244,0,7.334.114,7.334.114V-.19c-1.254,0-2.356-.722-3-2.622L-46.227-27.4l-6.536,1.976-7.22,19.3C-60.705-4.142-62.111-.19-64.277-.19V0s1.558-.114,3.5-.114c2.546,0,4.6.114,4.6.114V-.19C-59-.19-59.869-1.6-59.869-3.534a10.328,10.328,0,0,1,.456-2.888c.722-2.546,2.318-5.776,4.408-5.776,1.368,0,1.938,1.026,1.938,2.47a5.222,5.222,0,0,1-1.824,3.686,4.217,4.217,0,0,0,3.686,1.786A4.077,4.077,0,0,0-46.987-8.17c0-2.774-2.546-4.94-5.662-4.94-3,0-4.9,1.482-6.08,4.294l5.51-14.63,3,10.26a5.276,5.276,0,0,1,3.23,5.016,4.843,4.843,0,0,1-1.026,3.154Zm21.774-4.6V-21.66c0-2.964.912-4.75,2.85-4.75v-.19s-3.344.114-7.3.114-7.3-.114-7.3-.114v.19c1.938,0,2.85.684,2.85,3.382v14.4c0,5.32,2.432,8.17,6.992,8.816a4.687,4.687,0,0,1-2.66-4.37A4.08,4.08,0,0,1-25.935-8.436ZM-20.881.19C-23.047.19-24.491-1.1-24.491-3a4.471,4.471,0,0,1,1.6-3.5,4.29,4.29,0,0,0-3.344-1.52A3.982,3.982,0,0,0-30.495-4.18c0,3.192,3.344,4.9,7.562,4.9,6.46,0,9.766-1.824,9.766-9.348V-20.9c0-4.028,1.6-5.51,3.306-5.51v-.19s-2.584.114-3.42.114c-1.33,0-5.282-.114-5.282-.114v.19c3.23,0,5.13,1.482,5.13,5.51V-8.55C-13.433-4.6-14.345.19-20.881.19ZM6.251-27.322A14.646,14.646,0,0,0-8.835-12.692C-8.835-4.826-3.705.722,5.187.722c6.726,0,6.954-1.558,13.262-1.558v-7.03c0-2.964.912-4.75,2.85-4.75v-.19H6.859v.19c1.938,0,2.85.684,2.85,3.382v6.5c0,2.242-.8,3.192-2.736,3.192C3.629.456,1.311-3.23,1.311-13.718c0-11.552,2.66-13.376,5.4-13.376a3.415,3.415,0,0,1,3.61,3.724,6.5,6.5,0,0,1-1.634,4.18,5.155,5.155,0,0,0,4.028,2.014A3.947,3.947,0,0,0,17-21.318C17-23.864,13.851-27.322,6.251-27.322Zm31.2,23.484a7.7,7.7,0,0,1,.228,1.6c0,1.14-.456,2.052-1.938,2.052V0s2.014-.114,7.106-.114c5.244,0,7.334.114,7.334.114V-.19c-1.254,0-2.356-.722-3-2.622L38.931-27.4,32.4-25.422l-7.22,19.3C24.453-4.142,23.047-.19,20.881-.19V0s1.558-.114,3.5-.114c2.546,0,4.6.114,4.6.114V-.19c-2.812,0-3.686-1.406-3.686-3.344a10.329,10.329,0,0,1,.456-2.888c.722-2.546,2.318-5.776,4.408-5.776,1.368,0,1.938,1.026,1.938,2.47a5.222,5.222,0,0,1-1.824,3.686,4.217,4.217,0,0,0,3.686,1.786A4.077,4.077,0,0,0,38.171-8.17c0-2.774-2.546-4.94-5.662-4.94-3,0-4.9,1.482-6.08,4.294l5.51-14.63,3,10.26a5.276,5.276,0,0,1,3.23,5.016,4.843,4.843,0,0,1-1.026,3.154ZM35.625-28.652c-1.064,0-1.786-1.406-1.786-3.61,0-1.824.38-3.344,1.482-3.344,1.064,0,1.786,1.406,1.786,3.61C37.107-30.172,36.727-28.652,35.625-28.652Zm.114-7.106c-2.85,0-4.37,1.71-4.37,3.762,0,2.28,1.824,3.5,3.838,3.5,2.85,0,4.37-1.71,4.37-3.762C39.577-34.542,37.753-35.758,35.739-35.758ZM64.467-13.794c9.348,0,12.16-2.926,12.16-6.5,0-5.016-4.94-6.308-10.526-6.308-2.66,0-4.9.114-7.524.114-3.952,0-7.3-.114-7.3-.114v.19c1.938,0,2.85.684,2.85,3.382V-4.94c0,2.964-.912,4.75-2.85,4.75V0s3.344-.114,7.3-.114,7.3.114,7.3.114V-.19c-1.938,0-2.85-.684-2.85-3.382V-4.636a4.973,4.973,0,0,1-2.394.494,4.005,4.005,0,0,1-3.914-4.294c0-2.014,1.292-4.826,6.308-5.244V-26.22a2.761,2.761,0,0,1,.95-.152c2.432,0,3.534,2.85,3.534,6.5C67.507-16.568,66.861-13.794,64.467-13.794Zm1.178.418c-4.218,0-8.93.874-8.93,4.94A3.743,3.743,0,0,0,60.629-4.6a4.837,4.837,0,0,0,3.838-1.71,5.407,5.407,0,0,1-1.9-4.218c0-1.558.608-2.584,1.6-2.584,1.254,0,1.824,1.33,2.052,3L66.9-5.472C67.583-.912,70.091.722,74.575.722c2.356,0,5.32-.608,6.042-1.14l-.076-.114a1.987,1.987,0,0,1-.684.114c-1.178,0-1.9-1.026-2.2-2.242L76.475-7.182C75.3-11.742,70.547-13.376,65.645-13.376ZM88.787-.076a4.163,4.163,0,0,1-2.356-4.1A4.1,4.1,0,0,1,90.5-8.474a5.155,5.155,0,0,1,2.242.456v-18.2a4.535,4.535,0,0,1,1.1-.152c4.712,0,6.992,4.826,6.992,13.49,0,9.234-2.926,13.376-5.89,13.376-1.672,0-2.584-1.216-2.584-3.116a4.976,4.976,0,0,1,1.9-3.686,5.085,5.085,0,0,0-3.838-1.71,3.809,3.809,0,0,0-3.99,3.838c0,4.674,6.308,4.9,8.816,4.9,9.2,0,15.162-5.814,15.162-14.668,0-7.9-6.27-12.654-15.124-12.654-2.356,0-5.054.114-6.992.114-3.952,0-7.3-.114-7.3-.114v.19c1.938,0,2.85.684,2.85,3.382V-4.94c0,2.964-.912,4.75-2.85,4.75V0S84.835-.076,88.787-.076Zm-158.251,36a4.163,4.163,0,0,1-2.356-4.1,4.1,4.1,0,0,1,4.066-4.294,5.155,5.155,0,0,1,2.242.456V9.78a4.535,4.535,0,0,1,1.1-.152c4.712,0,6.992,4.826,6.992,13.49,0,9.234-2.926,13.376-5.89,13.376-1.672,0-2.584-1.216-2.584-3.116a4.976,4.976,0,0,1,1.9-3.686,5.085,5.085,0,0,0-3.838-1.71,3.809,3.809,0,0,0-3.99,3.838c0,4.674,6.308,4.9,8.816,4.9,9.2,0,15.162-5.814,15.162-14.668,0-7.9-6.27-12.654-15.124-12.654-2.356,0-5.054.114-6.992.114-3.952,0-7.3-.114-7.3-.114v.19c1.938,0,2.85.684,2.85,3.382V31.06c0,2.964-.912,4.75-2.85,4.75V36S-73.416,35.924-69.464,35.924ZM-24.168,9.4c-6.46.038-12.084.114-15.466.114-3.952,0-7.3-.114-7.3-.114v.19c1.938,0,2.85.684,2.85,3.382V31.06c0,2.964-.912,4.75-2.85,4.75V36s3.344-.114,7.3-.114c3.534,0,8.4.076,15.276.114l1.748-10.412h-.266c-1.14,6.308-5.472,10.146-9.462,10.146-1.938,0-2.85-.608-2.85-3.306V21.978h1.482c3.838,0,5.51,3.268,5.51,6.346h.19V16.354h-.19c0,3.61-2.242,5.32-4.826,5.32h-2.166V9.932A9.083,9.083,0,0,1-33.174,9.7a8.441,8.441,0,0,1,8.816,7.828h.19ZM-10.6,36.722c5.624,0,10.83-3.306,10.83-9.006,0-9.31-13.984-9.082-13.984-15.39A3.261,3.261,0,0,1-10.3,8.906c2.508,0,3.344,1.748,3.344,3.724a4.665,4.665,0,0,1-1.6,3.382,4.951,4.951,0,0,0,3.42,1.444A3.433,3.433,0,0,0-1.33,14c0-2.128-1.9-5.32-8.816-5.32-6.764,0-10.526,3.23-10.526,8.208,0,8.892,14.212,9.652,14.212,15.656,0,2.052-1.406,3.952-4.56,3.952-5.016,0-8.36-4.446-9.424-10.45h-.19l.38,9.538C-14.972,35.582-14.63,36.722-10.6,36.722ZM16.606,9.4s-3.344.114-7.3.114-7.3-.114-7.3-.114v.19c1.938,0,2.85.684,2.85,3.382V31.06c0,2.964-.912,4.75-2.85,4.75V36s3.344-.114,7.3-.114,7.3.114,7.3.114v-.19c-1.938,0-2.85-.684-2.85-3.382V14.34c0-2.964.912-4.75,2.85-4.75Zm16.758-.722a14.646,14.646,0,0,0-15.086,14.63c0,7.866,5.13,13.414,14.022,13.414,6.726,0,6.954-1.558,13.262-1.558v-7.03c0-2.964.912-4.75,2.85-4.75v-.19H33.972v.19c1.938,0,2.85.684,2.85,3.382v6.5c0,2.242-.8,3.192-2.736,3.192-3.344,0-5.662-3.686-5.662-14.174,0-11.552,2.66-13.376,5.4-13.376a3.415,3.415,0,0,1,3.61,3.724A6.5,6.5,0,0,1,35.8,16.81a5.155,5.155,0,0,0,4.028,2.014,3.947,3.947,0,0,0,4.294-4.142C44.118,12.136,40.964,8.678,33.364,8.678ZM74.138,27.716,64.372,13.2a9.629,9.629,0,0,1-1.748-3.686c-7.068,0-12.882-.114-12.882-.114v.19c1.938,0,2.85.684,2.85,3.382V30.3c0,4.028-1.14,5.51-2.85,5.51V36s2.394-.114,3.23-.114c1.33,0,5.434.114,5.434.114v-.19c-3.648,0-5.548-1.482-5.548-5.51V12.44L68.552,36.684,74.4,36V15.1c0-4.028,1.6-5.51,3.306-5.51V9.4s-2.584.114-3.42.114c-1.33,0-5.4-.114-5.4-.114v.19c2.812,0,5.244,1.14,5.244,5.51Z" transform="translate(1412 1874)" fill="#242325"/>
    <path id="Path_593" data-name="Path 593" d="M-5.876-73.136a2.591,2.591,0,0,0,2.7-2.7c0-2.853-2.313-4.241-2.545-6.555C-3.639-81.156-3.1-76.529.139-76.529a2.755,2.755,0,0,0,2.622-2.853c0-2-1.465-2.93-3.933-2.93-1.157,0-3.085.308-4.55-.308,1.388-.617,2.7-.308,3.856-.308,2.391,0,4.627-.848,4.627-3.085a2.667,2.667,0,0,0-2.622-2.7,3.459,3.459,0,0,0-1.465.386c-2.468,1.388-2.545,4.164-4.4,5.475.231-2.313,2.545-3.7,2.545-6.555a2.591,2.591,0,0,0-2.7-2.7,2.591,2.591,0,0,0-2.7,2.7c0,2.853,2.313,4.241,2.545,6.555-1.851-1.311-1.928-4.087-4.4-5.475a3.459,3.459,0,0,0-1.465-.386,2.667,2.667,0,0,0-2.622,2.7c0,2.236,2.236,3.085,4.627,3.085,1.157,0,2.468-.308,3.856.308-1.465.617-3.393.308-4.55.308-2.468,0-3.933.925-3.933,2.93a2.755,2.755,0,0,0,2.622,2.853c3.239,0,3.779-4.627,5.861-5.861-.231,2.313-2.545,3.7-2.545,6.555A2.591,2.591,0,0,0-5.876-73.136Z" transform="translate(1507.723 1975.765)" fill="#ef6f6c"/>
  </g>
</svg>
