<svg xmlns="http://www.w3.org/2000/svg" width="524" height="59" viewBox="0 0 524 59">
  <g id="logo-2" transform="translate(-60 -42)">
    <text id="STAUGÅRD_DESIGN" data-name="STAUGÅRD DESIGN" transform="translate(60 89)" fill="#fff8f2" font-size="49" font-family="Salome-Deco, Salome Deco"><tspan x="0" y="0">STAUGÅRD DESIGN</tspan></text>
    <path id="Path_592" data-name="Path 592" d="M-5.577-72.48a2.681,2.681,0,0,0,2.792-2.792c0-2.952-2.393-4.388-2.633-6.781C-3.263-80.777-2.7-75.99.646-75.99a2.85,2.85,0,0,0,2.713-2.952c0-2.074-1.516-3.032-4.069-3.032-1.2,0-3.191.319-4.707-.319,1.436-.638,2.792-.319,3.989-.319,2.473,0,4.787-.878,4.787-3.191A2.759,2.759,0,0,0,.646-88.6a3.579,3.579,0,0,0-1.516.4c-2.553,1.436-2.633,4.308-4.548,5.664.239-2.393,2.633-3.829,2.633-6.781a2.681,2.681,0,0,0-2.792-2.792,2.681,2.681,0,0,0-2.792,2.792c0,2.952,2.393,4.388,2.633,6.781-1.915-1.356-1.995-4.228-4.548-5.664a3.579,3.579,0,0,0-1.516-.4A2.759,2.759,0,0,0-14.513-85.8c0,2.314,2.314,3.191,4.787,3.191,1.2,0,2.553-.319,3.989.319-1.516.638-3.51.319-4.707.319-2.553,0-4.069.957-4.069,3.032A2.85,2.85,0,0,0-11.8-75.99c3.351,0,3.909-4.787,6.063-6.063-.239,2.393-2.633,3.829-2.633,6.781A2.681,2.681,0,0,0-5.577-72.48Z" transform="translate(580.642 144.393)" fill="#ef6f6c"/>
  </g>
</svg>
