<svg xmlns="http://www.w3.org/2000/svg" width="218.461" height="219.683" viewBox="0 0 218.461 219.683">
  <g id="scroll-button" transform="translate(218.461 219.683) rotate(180)">
    <path id="Path_594" data-name="Path 594" d="M201.174,112.022a9.772,9.772,0,0,1,1.035-3.846,5.022,5.022,0,0,1,2.127-2.087,5.581,5.581,0,0,1,2.9-.459l.424.04-.245,2.638-.274-.025a3.838,3.838,0,0,0-1.75.189,2.332,2.332,0,0,0-1.168,1.222,8.228,8.228,0,0,0-.6,2.681,4.746,4.746,0,0,0,.282,2.638,1.971,1.971,0,0,0,1.624.9,2.953,2.953,0,0,0,1.265-.109,1.7,1.7,0,0,0,.855-.824,7.93,7.93,0,0,0,.753-1.889l.836-2.785a7.5,7.5,0,0,1,1.07-2.336,4.232,4.232,0,0,1,1.657-1.352,4.62,4.62,0,0,1,2.262-.293,4.42,4.42,0,0,1,2.255.862,4.813,4.813,0,0,1,1.578,2.206,8.176,8.176,0,0,1,.344,3.6,7.782,7.782,0,0,1-1.116,3.637,4.809,4.809,0,0,1-2.235,1.9,5.7,5.7,0,0,1-2.8.418l-.3-.028.247-2.663.274.025a3.728,3.728,0,0,0,1.75-.189,2.109,2.109,0,0,0,1.157-1.1,5.887,5.887,0,0,0,.588-2.28,4.964,4.964,0,0,0-.3-2.715,1.851,1.851,0,0,0-1.566-.974,2.475,2.475,0,0,0-1.218.138,1.911,1.911,0,0,0-.808.854,17.2,17.2,0,0,0-.689,1.744l-.861,2.783a6.934,6.934,0,0,1-1.183,2.476,4.094,4.094,0,0,1-1.73,1.321,4.757,4.757,0,0,1-2.234.269,4.635,4.635,0,0,1-2.33-.869,4.483,4.483,0,0,1-1.555-2.178A8.08,8.08,0,0,1,201.174,112.022Z" fill="#1a1423"/>
    <path id="Path_595" data-name="Path 595" d="M198.05,130.348a8.107,8.107,0,0,1,2.2-3.731,7.146,7.146,0,0,1,3.642-1.738,10.574,10.574,0,0,1,4.65.409,10.41,10.41,0,0,1,4.1,2.177,6.959,6.959,0,0,1,2.112,3.439,7.965,7.965,0,0,1-.16,4.333,8.6,8.6,0,0,1-1.865,3.489,5.891,5.891,0,0,1-2.86,1.736,6.6,6.6,0,0,1-3.58-.146l-.144-.042.808-2.733.144.042a3.774,3.774,0,0,0,3.15-.164,4.934,4.934,0,0,0,1.875-2.991,5.711,5.711,0,0,0,.218-2.855,3.525,3.525,0,0,0-1.4-2.056,10.112,10.112,0,0,0-3.214-1.472,10.244,10.244,0,0,0-3.5-.512,3.528,3.528,0,0,0-2.293.965,5.918,5.918,0,0,0-1.345,2.522,5.03,5.03,0,0,0-.077,3.522,3.776,3.776,0,0,0,2.556,1.851l.144.042-.808,2.733-.144-.042a6.68,6.68,0,0,1-3.084-1.824,5.9,5.9,0,0,1-1.457-3.011A8.6,8.6,0,0,1,198.05,130.348Z" fill="#1a1423"/>
    <path id="Path_596" data-name="Path 596" d="M193.084,145.283l1.26-2.388,14.813,7.818-3.36,6.368a7.848,7.848,0,0,1-2.024,2.549,4.476,4.476,0,0,1-2.472,1.042,4.678,4.678,0,0,1-2.738-.6,5,5,0,0,1-1.866-1.606,3.779,3.779,0,0,1-.658-2.129,5.922,5.922,0,0,1,.626-2.524l-.177-.094a3.911,3.911,0,0,1-1.486.941,5.57,5.57,0,0,1-1.75.263l-5.291.063,1.47-2.786,4.934-.082a5.743,5.743,0,0,0,1.435-.147,2.544,2.544,0,0,0,1.109-.6,4.8,4.8,0,0,0,.945-1.31l.934-1.769Zm12.669,6.686-5-2.637L198.5,153.6a3.371,3.371,0,0,0-.511,2.359,2.868,2.868,0,0,0,1.6,1.635,2.825,2.825,0,0,0,2.228.384,3.279,3.279,0,0,0,1.682-1.741Z" fill="#1a1423"/>
    <path id="Path_597" data-name="Path 597" d="M180.844,164.727a8,8,0,0,1,3.435-2.554,7.309,7.309,0,0,1,4.047-.218,10.321,10.321,0,0,1,4.147,2.153,10.167,10.167,0,0,1,2.928,3.61,7.107,7.107,0,0,1,.6,4.007,7.857,7.857,0,0,1-1.788,3.9,7.776,7.776,0,0,1-3.454,2.539,6.957,6.957,0,0,1-4.031.2,10.173,10.173,0,0,1-4.128-2.137,10.333,10.333,0,0,1-2.947-3.626,7.149,7.149,0,0,1-.621-3.988A7.92,7.92,0,0,1,180.844,164.727Zm2.036,1.658a6,6,0,0,0-1.339,2.553,3.528,3.528,0,0,0,.5,2.437,9.675,9.675,0,0,0,2.382,2.618,9.554,9.554,0,0,0,3.045,1.8,3.526,3.526,0,0,0,2.487-.005,5.783,5.783,0,0,0,2.25-1.811,5.873,5.873,0,0,0,1.319-2.569,3.607,3.607,0,0,0-.467-2.476,9.97,9.97,0,0,0-2.4-2.6,10.108,10.108,0,0,0-3.03-1.823,3.6,3.6,0,0,0-2.518.044A6.065,6.065,0,0,0,182.88,166.385Z" fill="#1a1423"/>
    <path id="Path_598" data-name="Path 598" d="M170.423,176.583l2.062-1.743L183.3,187.632l-2.062,1.743Zm-6.816,5.762,8.267-6.989,1.582,1.871-8.267,6.989Z" fill="#1a1423"/>
    <path id="Path_599" data-name="Path 599" d="M157.339,186.841l2.33-1.364,8.466,14.453-2.33,1.364Zm-7.7,4.512,9.34-5.472,1.239,2.114-9.341,5.472Z" fill="#1a1423"/>
    <path id="Path_600" data-name="Path 600" d="M123.646,200.88l2.675-.363,2.252,16.6-2.874.39-7.583-8.659L116,206.434l-.2.027.359,2.651,1.291,9.512-2.676.363-2.252-16.6L115.4,202l7.538,8.514,2.175,2.454.173-.023-.366-2.7Z" fill="#1a1423"/>
    <path id="Path_601" data-name="Path 601" d="M102.959,202.8l2.695.157-.969,16.722-2.695-.157Zm-9.26-.536,11.132.645-.142,2.446-11.132-.645Zm-.042,7.209,10.757.624-.142,2.446-10.757-.624Zm-.786,7.092,11.131.645-.14,2.421L92.73,218.99Z" fill="#1a1423"/>
    <path id="Path_602" data-name="Path 602" d="M82.524,200.46l4.913,1.272-.614,2.371-4.913-1.271a7.664,7.664,0,0,0-3.266-.252,3.484,3.484,0,0,0-2.212,1.365A8.83,8.83,0,0,0,75,207.165a8.646,8.646,0,0,0-.308,3.484,3.472,3.472,0,0,0,1.267,2.29,7.372,7.372,0,0,0,2.972,1.389l4.913,1.272-.608,2.347-4.913-1.271a9.351,9.351,0,0,1-4.1-2.12,6.917,6.917,0,0,1-2.136-3.523,10.28,10.28,0,0,1,2.242-8.664,7.07,7.07,0,0,1,3.583-2.068A9.54,9.54,0,0,1,82.524,200.46Zm3.146.814,2.614.677-4.2,16.215-2.614-.676Z" fill="#1a1423"/>
    <path id="Path_603" data-name="Path 603" d="M2,106.5A104.506,104.506,0,0,1,210.086,92.62l2.006-.093A106.508,106.508,0,1,0,60.51,202.585l.521-1.969A104.508,104.508,0,0,1,2,106.5Z" fill="#1a1423" fill-rule="evenodd"/>
  </g>
</svg>
