<svg xmlns="http://www.w3.org/2000/svg" width="359" height="359" viewBox="0 0 359 359">
  <path id="star-orange" d="M-2190,1956V1811.694l-55.223,133.321-12.934-5.358,55.224-133.324-102.044,102.044-9.9-9.9,102.045-102.045-133.327,55.226-5.357-12.934,133.321-55.223H-2362.5v-14h144.307l-133.322-55.223,5.358-12.934,135.031,55.931-102.751-102.751,9.9-9.9,102.045,102.046-55.225-133.326,12.934-5.358L-2190,1738.892V1597h14v144.312l55.225-133.327,12.935,5.358-55.223,133.322,102.039-102.039,9.9,9.9-102.039,102.039,133.32-55.223,5.358,12.934-133.326,55.225H-2003.5v14h-144.31l133.326,55.225-5.358,12.934-131.618-54.518,101.334,101.335-9.9,9.9-102.04-102.039,55.223,133.322-12.935,5.358L-2176,1809.275V1956Z" transform="translate(2362.5 -1597)" fill="#ef6f6c"/>
</svg>
